<svg xmlns="http://www.w3.org/2000/svg" xmlns:xlink="http://www.w3.org/1999/xlink" xmlns:lucid="lucid" width="1760" height="1360"><g transform="translate(0 0)" lucid:page-tab-id="PB3JTdwi2QFu"><path d="M832 500c-17.67 0-32 14.33-32 32v156c0 17.67 14.33 32 32 32h96c17.67 0 32-14.33 32-32V532c0-17.67-14.33-32-32-32z" stroke="#000" fill="#fff"/><path d="M800 544h160" stroke="#000" fill="none"/><use xlink:href="#a" transform="matrix(1,0,0,1,832,500) translate(-10.400000000000013 14.799999999999999)"/><use xlink:href="#b" transform="matrix(1,0,0,1,832,500) translate(16.574999999999996 36.4)"/><use xlink:href="#c" transform="matrix(1,0,0,1,816,560) translate(55.025 21.6)"/><use xlink:href="#d" transform="matrix(1,0,0,1,816,560) translate(34.724999999999994 43.2)"/><use xlink:href="#e" transform="matrix(1,0,0,1,816,560) translate(33.05 64.80000000000001)"/><use xlink:href="#f" transform="matrix(1,0,0,1,816,560) translate(27.549999999999997 86.40000000000002)"/><use xlink:href="#g" transform="matrix(1,0,0,1,816,560) translate(-12.650000000000006 108.00000000000001)"/><use xlink:href="#h" transform="matrix(1,0,0,1,816,560) translate(40.724999999999994 129.6)"/><path d="M1152 564.8c-17.67 0-32 14.33-32 32v96c0 17.67 14.33 32 32 32h96c17.67 0 32-14.33 32-32v-96c0-17.67-14.33-32-32-32z" stroke="#000" fill="#fff"/><path d="M1120 608.8h160" stroke="#000" fill="none"/><use xlink:href="#i" transform="matrix(1,0,0,1,1152,564.7999999999998) translate(-4.425000000000004 25.6)"/><use xlink:href="#c" transform="matrix(1,0,0,1,1136,624.7999999999998) translate(55.025 24)"/><use xlink:href="#j" transform="matrix(1,0,0,1,1136,624.7999999999998) translate(25.074999999999996 45.6)"/><use xlink:href="#h" transform="matrix(1,0,0,1,1136,624.7999999999998) translate(40.724999999999994 67.2)"/><path d="M961 644.8h142.12" stroke="#333" fill="none"/><path d="M961 645.3h-.5v-1h.5z" fill="#333"/><path d="M1117.88 644.8l-14.26 4.64v-9.28z" stroke="#333" fill="#333"/><path d="M472 360c-17.67 0-32 14.33-32 32v156c0 17.67 14.33 32 32 32h96c17.67 0 32-14.33 32-32V392c0-17.67-14.33-32-32-32z" stroke="#000" fill="#fff"/><path d="M440 404h160" stroke="#000" fill="none"/><use xlink:href="#k" transform="matrix(1,0,0,1,472,360) translate(21.025 25.6)"/><use xlink:href="#c" transform="matrix(1,0,0,1,456,420) translate(55.025 43.19999999999999)"/><use xlink:href="#l" transform="matrix(1,0,0,1,456,420) translate(18.775 64.8)"/><use xlink:href="#m" transform="matrix(1,0,0,1,456,420) translate(30 86.4)"/><use xlink:href="#n" transform="matrix(1,0,0,1,456,420) translate(-8.550000000000011 108)"/><path d="M472 660c-17.67 0-32 14.33-32 32v96c0 17.67 14.33 32 32 32h96c17.67 0 32-14.33 32-32v-96c0-17.67-14.33-32-32-32z" stroke="#000" fill="#fff"/><path d="M440 704h160" stroke="#000" fill="none"/><use xlink:href="#o" transform="matrix(1,0,0,1,472,660) translate(-23.650000000000006 25.6)"/><use xlink:href="#c" transform="matrix(1,0,0,1,456,720) translate(55.025 24)"/><use xlink:href="#p" transform="matrix(1,0,0,1,456,720) translate(-10.325000000000003 45.6)"/><use xlink:href="#n" transform="matrix(1,0,0,1,456,720) translate(-8.550000000000011 67.2)"/><path d="M601 522.13h87c6.63 0 12 5.38 12 12v28c0 6.63 5.37 12 12 12h71.12" stroke="#333" fill="none"/><path d="M601 522.63h-.5v-1h.5z" fill="#333"/><path d="M797.88 574.13l-14.26 4.64v-9.27z" stroke="#333" fill="#333"/><path d="M601 783.47h87c6.63 0 12-5.38 12-12V586.13c0-6.62 5.37-12 12-12h71.12" stroke="#333" fill="none"/><path d="M601 783.97h-.5v-1h.5z" fill="#333"/><path d="M797.88 574.13l-14.26 4.64v-9.27z" stroke="#333" fill="#333"/><path d="M620 748c0-4.42 3.58-8 8-8h24c4.42 0 8 3.58 8 8v44c0 4.42-3.58 8-8 8h-24c-4.42 0-8-3.58-8-8z" stroke="#000" stroke-opacity="0" fill="#fff" fill-opacity="0"/><g><use xlink:href="#q" transform="matrix(1,0,0,1,625,745) translate(-1.4750000000000014 28.6)"/></g><path d="M620 488c0-4.42 3.58-8 8-8h24c4.42 0 8 3.58 8 8v44c0 4.42-3.58 8-8 8h-24c-4.42 0-8-3.58-8-8z" stroke="#000" stroke-opacity="0" fill="#fff" fill-opacity="0"/><g><use xlink:href="#q" transform="matrix(1,0,0,1,625,485) translate(-1.4750000000000014 28.6)"/></g><path d="M980 608c0-4.42 3.58-8 8-8h24c4.42 0 8 3.58 8 8v44c0 4.42-3.58 8-8 8h-24c-4.42 0-8-3.58-8-8z" stroke="#000" stroke-opacity="0" fill="#fff" fill-opacity="0"/><g><use xlink:href="#q" transform="matrix(1,0,0,1,985,605) translate(-1.4750000000000014 28.6)"/></g><path d="M420 268c0-4.42 3.58-8 8-8h224c4.42 0 8 3.58 8 8v44c0 4.42-3.58 8-8 8H428c-4.42 0-8-3.58-8-8z" stroke="#000" stroke-opacity="0" fill="#fff" fill-opacity="0"/><g><use xlink:href="#r" transform="matrix(1,0,0,1,425,265) translate(4.933641975308703 31.747222222222213)"/><use xlink:href="#s" transform="matrix(1,0,0,1,425,265) translate(90.30339506172841 31.747222222222213)"/></g><defs><path d="M233-177c-1 41-23 64-60 70L243 0h-38l-65-103H63V0H30v-248c88 3 205-21 203 71zM63-129c60-2 137 13 137-47 0-61-80-42-137-45v92" id="t"/><path d="M30 0v-248h187v28H63v79h144v27H63v87h162V0H30" id="u"/><path d="M30-248c87 1 191-15 191 75 0 78-77 80-158 76V0H30v-248zm33 125c57 0 124 11 124-50 0-59-68-47-124-48v98" id="v"/><path d="M140-251c81 0 123 46 123 126C263-46 219 4 140 4 59 4 17-45 17-125s42-126 123-126zm0 227c63 0 89-41 89-101s-29-99-89-99c-61 0-89 39-89 99S79-25 140-24" id="w"/><path d="M185-189c-5-48-123-54-124 2 14 75 158 14 163 119 3 78-121 87-175 55-17-10-28-26-33-46l33-7c5 56 141 63 141-1 0-78-155-14-162-118-5-82 145-84 179-34 5 7 8 16 11 25" id="x"/><path d="M33 0v-248h34V0H33" id="y"/><path d="M127-220V0H93v-220H8v-28h204v28h-85" id="z"/><path d="M137-103V0h-34v-103L8-248h37l75 118 75-118h37" id="A"/><g id="a"><use transform="matrix(0.05,0,0,0.05,0,0)" xlink:href="#t"/><use transform="matrix(0.05,0,0,0.05,12.950000000000001,0)" xlink:href="#u"/><use transform="matrix(0.05,0,0,0.05,24.950000000000003,0)" xlink:href="#v"/><use transform="matrix(0.05,0,0,0.05,36.95,0)" xlink:href="#w"/><use transform="matrix(0.05,0,0,0.05,50.95,0)" xlink:href="#x"/><use transform="matrix(0.05,0,0,0.05,62.95,0)" xlink:href="#y"/><use transform="matrix(0.05,0,0,0.05,67.95,0)" xlink:href="#z"/><use transform="matrix(0.05,0,0,0.05,78.55000000000001,0)" xlink:href="#w"/><use transform="matrix(0.05,0,0,0.05,92.55000000000001,0)" xlink:href="#t"/><use transform="matrix(0.05,0,0,0.05,105.15000000000003,0)" xlink:href="#A"/></g><path d="M212-179c-10-28-35-45-73-45-59 0-87 40-87 99 0 60 29 101 89 101 43 0 62-24 78-52l27 14C228-24 195 4 139 4 59 4 22-46 18-125c-6-104 99-153 187-111 19 9 31 26 39 46" id="B"/><path d="M197 0v-115H63V0H30v-248h33v105h134v-105h34V0h-34" id="C"/><path d="M194 0L95-120 63-95V0H30v-248h33v124l119-124h40L117-140 236 0h-42" id="D"/><g id="b"><use transform="matrix(0.05,0,0,0.05,0,0)" xlink:href="#B"/><use transform="matrix(0.05,0,0,0.05,12.950000000000001,0)" xlink:href="#C"/><use transform="matrix(0.05,0,0,0.05,25.900000000000002,0)" xlink:href="#u"/><use transform="matrix(0.05,0,0,0.05,37.900000000000006,0)" xlink:href="#B"/><use transform="matrix(0.05,0,0,0.05,50.85000000000001,0)" xlink:href="#D"/></g><path d="M30-248c118-7 216 8 213 122C240-48 200 0 122 0H30v-248zM63-27c89 8 146-16 146-99s-60-101-146-95v194" id="E"/><g id="c"><use transform="matrix(0.05,0,0,0.05,0,0)" xlink:href="#y"/><use transform="matrix(0.05,0,0,0.05,5,0)" xlink:href="#E"/></g><path d="M205 0l-28-72H64L36 0H1l101-248h38L239 0h-34zm-38-99l-47-123c-12 45-31 82-46 123h93" id="F"/><g id="d"><use transform="matrix(0.05,0,0,0.05,0,0)" xlink:href="#x"/><use transform="matrix(0.05,0,0,0.05,12,0)" xlink:href="#z"/><use transform="matrix(0.05,0,0,0.05,21.6,0)" xlink:href="#F"/><use transform="matrix(0.05,0,0,0.05,33.6,0)" xlink:href="#t"/><use transform="matrix(0.05,0,0,0.05,46.550000000000004,0)" xlink:href="#x"/></g><path d="M63-220v92h138v28H63V0H30v-248h175v28H63" id="G"/><g id="e"><use transform="matrix(0.05,0,0,0.05,0,0)" xlink:href="#G"/><use transform="matrix(0.05,0,0,0.05,10.950000000000001,0)" xlink:href="#w"/><use transform="matrix(0.05,0,0,0.05,24.950000000000003,0)" xlink:href="#t"/><use transform="matrix(0.05,0,0,0.05,37.900000000000006,0)" xlink:href="#D"/><use transform="matrix(0.05,0,0,0.05,49.900000000000006,0)" xlink:href="#x"/></g><path d="M137 0h-34L2-248h35l83 218 83-218h36" id="H"/><path d="M-5 72V49h209v23H-5" id="I"/><g id="f"><use transform="matrix(0.05,0,0,0.05,0,0)" xlink:href="#H"/><use transform="matrix(0.05,0,0,0.05,12,0)" xlink:href="#y"/><use transform="matrix(0.05,0,0,0.05,17,0)" xlink:href="#x"/><use transform="matrix(0.05,0,0,0.05,29,0)" xlink:href="#y"/><use transform="matrix(0.05,0,0,0.05,34,0)" xlink:href="#z"/><use transform="matrix(0.05,0,0,0.05,44.95,0)" xlink:href="#I"/><use transform="matrix(0.05,0,0,0.05,54.95,0)" xlink:href="#y"/><use transform="matrix(0.05,0,0,0.05,59.95,0)" xlink:href="#E"/></g><path d="M190 0L58-211 59 0H30v-248h39L202-35l-2-213h31V0h-41" id="J"/><path d="M160-131c35 5 61 23 61 61C221 17 115-2 30 0v-248c76 3 177-17 177 60 0 33-19 50-47 57zm-97-11c50-1 110 9 110-42 0-47-63-36-110-37v79zm0 115c55-2 124 14 124-45 0-56-70-42-124-44v89" id="K"/><path d="M232-93c-1 65-40 97-104 97C67 4 28-28 28-90v-158h33c8 89-33 224 67 224 102 0 64-133 71-224h33v155" id="L"/><path d="M103-251c84 0 111 97 45 133-19 10-37 24-39 52H78c0-63 77-55 77-114 0-30-21-42-52-43-32 0-53 17-56 46l-32-2c7-45 34-72 88-72zM77 0v-35h34V0H77" id="M"/><g id="g"><use transform="matrix(0.05,0,0,0.05,0,0)" xlink:href="#B"/><use transform="matrix(0.05,0,0,0.05,12.950000000000001,0)" xlink:href="#w"/><use transform="matrix(0.05,0,0,0.05,26.950000000000003,0)" xlink:href="#J"/><use transform="matrix(0.05,0,0,0.05,39.900000000000006,0)" xlink:href="#z"/><use transform="matrix(0.05,0,0,0.05,50.85000000000001,0)" xlink:href="#t"/><use transform="matrix(0.05,0,0,0.05,63.80000000000001,0)" xlink:href="#y"/><use transform="matrix(0.05,0,0,0.05,68.80000000000001,0)" xlink:href="#K"/><use transform="matrix(0.05,0,0,0.05,80.80000000000001,0)" xlink:href="#L"/><use transform="matrix(0.05,0,0,0.05,93.75000000000001,0)" xlink:href="#z"/><use transform="matrix(0.05,0,0,0.05,104.35000000000002,0)" xlink:href="#w"/><use transform="matrix(0.05,0,0,0.05,118.35000000000002,0)" xlink:href="#t"/><use transform="matrix(0.05,0,0,0.05,131.3,0)" xlink:href="#x"/><use transform="matrix(0.05,0,0,0.05,143.3,0)" xlink:href="#M"/></g><g id="h"><use transform="matrix(0.05,0,0,0.05,0,0)" xlink:href="#E"/><use transform="matrix(0.05,0,0,0.05,12.950000000000001,0)" xlink:href="#F"/><use transform="matrix(0.05,0,0,0.05,23.6,0)" xlink:href="#z"/><use transform="matrix(0.05,0,0,0.05,34.550000000000004,0)" xlink:href="#u"/></g><g id="i"><use transform="matrix(0.05,0,0,0.05,0,0)" xlink:href="#L"/><use transform="matrix(0.05,0,0,0.05,12.950000000000001,0)" xlink:href="#x"/><use transform="matrix(0.05,0,0,0.05,24.950000000000003,0)" xlink:href="#u"/><use transform="matrix(0.05,0,0,0.05,36.95,0)" xlink:href="#t"/><use transform="matrix(0.05,0,0,0.05,49.900000000000006,0)" xlink:href="#I"/><use transform="matrix(0.05,0,0,0.05,59.900000000000006,0)" xlink:href="#H"/><use transform="matrix(0.05,0,0,0.05,71.9,0)" xlink:href="#y"/><use transform="matrix(0.05,0,0,0.05,76.9,0)" xlink:href="#x"/><use transform="matrix(0.05,0,0,0.05,88.9,0)" xlink:href="#y"/><use transform="matrix(0.05,0,0,0.05,93.9,0)" xlink:href="#z"/></g><g id="j"><use transform="matrix(0.05,0,0,0.05,0,0)" xlink:href="#L"/><use transform="matrix(0.05,0,0,0.05,12.950000000000001,0)" xlink:href="#x"/><use transform="matrix(0.05,0,0,0.05,24.950000000000003,0)" xlink:href="#u"/><use transform="matrix(0.05,0,0,0.05,36.95,0)" xlink:href="#t"/><use transform="matrix(0.05,0,0,0.05,49.900000000000006,0)" xlink:href="#I"/><use transform="matrix(0.05,0,0,0.05,59.900000000000006,0)" xlink:href="#y"/><use transform="matrix(0.05,0,0,0.05,64.9,0)" xlink:href="#E"/></g><g id="k"><use transform="matrix(0.05,0,0,0.05,0,0)" xlink:href="#y"/><use transform="matrix(0.05,0,0,0.05,5,0)" xlink:href="#x"/><use transform="matrix(0.05,0,0,0.05,17,0)" xlink:href="#x"/><use transform="matrix(0.05,0,0,0.05,29,0)" xlink:href="#L"/><use transform="matrix(0.05,0,0,0.05,41.95,0)" xlink:href="#u"/></g><g id="l"><use transform="matrix(0.05,0,0,0.05,0,0)" xlink:href="#y"/><use transform="matrix(0.05,0,0,0.05,5,0)" xlink:href="#J"/><use transform="matrix(0.05,0,0,0.05,17.950000000000003,0)" xlink:href="#y"/><use transform="matrix(0.05,0,0,0.05,22.950000000000003,0)" xlink:href="#z"/><use transform="matrix(0.05,0,0,0.05,33.900000000000006,0)" xlink:href="#I"/><use transform="matrix(0.05,0,0,0.05,43.900000000000006,0)" xlink:href="#E"/><use transform="matrix(0.05,0,0,0.05,56.85,0)" xlink:href="#F"/><use transform="matrix(0.05,0,0,0.05,67.5,0)" xlink:href="#z"/><use transform="matrix(0.05,0,0,0.05,78.45,0)" xlink:href="#u"/></g><path d="M30 0v-248h33v221h125V0H30" id="N"/><g id="m"><use transform="matrix(0.05,0,0,0.05,0,0)" xlink:href="#N"/><use transform="matrix(0.05,0,0,0.05,10,0)" xlink:href="#F"/><use transform="matrix(0.05,0,0,0.05,22,0)" xlink:href="#K"/><use transform="matrix(0.05,0,0,0.05,34,0)" xlink:href="#u"/><use transform="matrix(0.05,0,0,0.05,46,0)" xlink:href="#N"/><use transform="matrix(0.05,0,0,0.05,56,0)" xlink:href="#x"/></g><g id="n"><use transform="matrix(0.05,0,0,0.05,0,0)" xlink:href="#t"/><use transform="matrix(0.05,0,0,0.05,12.950000000000001,0)" xlink:href="#u"/><use transform="matrix(0.05,0,0,0.05,24.950000000000003,0)" xlink:href="#v"/><use transform="matrix(0.05,0,0,0.05,36.95,0)" xlink:href="#w"/><use transform="matrix(0.05,0,0,0.05,50.95,0)" xlink:href="#x"/><use transform="matrix(0.05,0,0,0.05,62.95,0)" xlink:href="#y"/><use transform="matrix(0.05,0,0,0.05,67.95,0)" xlink:href="#z"/><use transform="matrix(0.05,0,0,0.05,78.55000000000001,0)" xlink:href="#w"/><use transform="matrix(0.05,0,0,0.05,92.55000000000001,0)" xlink:href="#t"/><use transform="matrix(0.05,0,0,0.05,105.15000000000003,0)" xlink:href="#A"/><use transform="matrix(0.05,0,0,0.05,117.15000000000003,0)" xlink:href="#I"/><use transform="matrix(0.05,0,0,0.05,127.15000000000003,0)" xlink:href="#y"/><use transform="matrix(0.05,0,0,0.05,132.15000000000003,0)" xlink:href="#E"/></g><g id="o"><use transform="matrix(0.05,0,0,0.05,0,0)" xlink:href="#B"/><use transform="matrix(0.05,0,0,0.05,12.950000000000001,0)" xlink:href="#w"/><use transform="matrix(0.05,0,0,0.05,26.950000000000003,0)" xlink:href="#J"/><use transform="matrix(0.05,0,0,0.05,39.900000000000006,0)" xlink:href="#x"/><use transform="matrix(0.05,0,0,0.05,51.900000000000006,0)" xlink:href="#z"/><use transform="matrix(0.05,0,0,0.05,62.85,0)" xlink:href="#t"/><use transform="matrix(0.05,0,0,0.05,75.80000000000001,0)" xlink:href="#y"/><use transform="matrix(0.05,0,0,0.05,80.80000000000001,0)" xlink:href="#K"/><use transform="matrix(0.05,0,0,0.05,92.80000000000001,0)" xlink:href="#L"/><use transform="matrix(0.05,0,0,0.05,105.75,0)" xlink:href="#z"/><use transform="matrix(0.05,0,0,0.05,116.35000000000002,0)" xlink:href="#w"/><use transform="matrix(0.05,0,0,0.05,130.35000000000002,0)" xlink:href="#t"/></g><g id="p"><use transform="matrix(0.05,0,0,0.05,0,0)" xlink:href="#B"/><use transform="matrix(0.05,0,0,0.05,12.950000000000001,0)" xlink:href="#w"/><use transform="matrix(0.05,0,0,0.05,26.950000000000003,0)" xlink:href="#J"/><use transform="matrix(0.05,0,0,0.05,39.900000000000006,0)" xlink:href="#z"/><use transform="matrix(0.05,0,0,0.05,50.85000000000001,0)" xlink:href="#t"/><use transform="matrix(0.05,0,0,0.05,63.80000000000001,0)" xlink:href="#y"/><use transform="matrix(0.05,0,0,0.05,68.80000000000001,0)" xlink:href="#K"/><use transform="matrix(0.05,0,0,0.05,80.80000000000001,0)" xlink:href="#L"/><use transform="matrix(0.05,0,0,0.05,93.75000000000001,0)" xlink:href="#z"/><use transform="matrix(0.05,0,0,0.05,104.7,0)" xlink:href="#y"/><use transform="matrix(0.05,0,0,0.05,109.7,0)" xlink:href="#w"/><use transform="matrix(0.05,0,0,0.05,123.7,0)" xlink:href="#J"/><use transform="matrix(0.05,0,0,0.05,136.65,0)" xlink:href="#x"/></g><path d="M33 0v-38h34V0H33" id="O"/><path d="M27 0v-27h64v-190l-56 39v-29l58-41h29v221h61V0H27" id="P"/><g id="q"><use transform="matrix(0.05,0,0,0.05,0,0)" xlink:href="#J"/><use transform="matrix(0.05,0,0,0.05,12.950000000000001,0)" xlink:href="#O"/><use transform="matrix(0.05,0,0,0.05,17.950000000000003,0)" xlink:href="#O"/><use transform="matrix(0.05,0,0,0.05,22.950000000000003,0)" xlink:href="#P"/></g><path d="M141-36C126-15 110 5 73 4 37 3 15-17 15-53c-1-64 63-63 125-63 3-35-9-54-41-54-24 1-41 7-42 31l-33-3c5-37 33-52 76-52 45 0 72 20 72 64v82c-1 20 7 32 28 27v20c-31 9-61-2-59-35zM48-53c0 20 12 33 32 33 41-3 63-29 60-74-43 2-92-5-92 41" id="Q"/><path d="M59-47c-2 24 18 29 38 22v24C64 9 27 4 27-40v-127H5v-23h24l9-43h21v43h35v23H59v120" id="R"/><g id="r"><use transform="matrix(0.09938271604938267,0,0,0.09938271604938267,0,0)" xlink:href="#E"/><use transform="matrix(0.09938271604938267,0,0,0.09938271604938267,25.740123456790112,0)" xlink:href="#Q"/><use transform="matrix(0.09938271604938267,0,0,0.09938271604938267,45.616666666666646,0)" xlink:href="#R"/><use transform="matrix(0.09938271604938267,0,0,0.09938271604938267,55.55493827160492,0)" xlink:href="#Q"/></g><path d="M24-231v-30h32v30H24zM24 0v-190h32V0H24" id="S"/><path d="M177-190C167-65 218 103 67 71c-23-6-38-20-44-43l32-5c15 47 100 32 89-28v-30C133-14 115 1 83 1 29 1 15-40 15-95c0-56 16-97 71-98 29-1 48 16 59 35 1-10 0-23 2-32h30zM94-22c36 0 50-32 50-73 0-42-14-75-50-75-39 0-46 34-46 75s6 73 46 73" id="T"/><path d="M114-163C36-179 61-72 57 0H25l-1-190h30c1 12-1 29 2 39 6-27 23-49 58-41v29" id="U"/><path d="M210-169c-67 3-38 105-44 169h-31v-121c0-29-5-50-35-48C34-165 62-65 56 0H25l-1-190h30c1 10-1 24 2 32 10-44 99-50 107 0 11-21 27-35 58-36 85-2 47 119 55 194h-31v-121c0-29-5-49-35-48" id="V"/><g id="s"><use transform="matrix(0.09938271604938267,0,0,0.09938271604938267,0,0)" xlink:href="#E"/><use transform="matrix(0.09938271604938267,0,0,0.09938271604938267,25.740123456790112,0)" xlink:href="#S"/><use transform="matrix(0.09938271604938267,0,0,0.09938271604938267,33.591358024691345,0)" xlink:href="#Q"/><use transform="matrix(0.09938271604938267,0,0,0.09938271604938267,53.467901234567876,0)" xlink:href="#T"/><use transform="matrix(0.09938271604938267,0,0,0.09938271604938267,73.3444444444444,0)" xlink:href="#U"/><use transform="matrix(0.09938271604938267,0,0,0.09938271604938267,85.17098765432094,0)" xlink:href="#Q"/><use transform="matrix(0.09938271604938267,0,0,0.09938271604938267,105.04753086419747,0)" xlink:href="#V"/></g></defs></g></svg>